<svg width="46" height="46" viewBox="0 0 46 46" fill="none" xmlns="http://www.w3.org/2000/svg">
<path opacity="0.4" d="M42.1665 22.9996C42.1665 33.5873 33.5855 42.1663 22.9998 42.1663C12.414 42.1663 3.83313 33.5873 3.83313 22.9996C3.83313 12.4158 12.414 3.83295 22.9998 3.83295C33.5855 3.83295 42.1665 12.4158 42.1665 22.9996Z" fill="#00B6A3"/>
<path d="M22.9901 28.6128C23.9348 28.6128 24.6861 29.366 24.6864 30.2896C24.6864 31.2134 23.9353 31.9673 23.0096 31.9673C22.08 31.9673 21.3231 31.2134 21.3231 30.2896C21.3233 29.3661 22.0723 28.613 22.9901 28.6128ZM22.9901 14.0601C23.9138 14.0601 24.6676 14.8132 24.6678 15.7368V24.2085C24.6678 25.1324 23.9139 25.8863 22.9901 25.8863C22.0664 25.8861 21.3133 25.1323 21.3133 24.2085V15.7368C21.3135 14.8133 22.0665 14.0603 22.9901 14.0601Z" fill="#00B6A3"/>
</svg>
