<svg xmlns="http://www.w3.org/2000/svg" viewBox="0 0 160.43 145.2"><defs><style>.cls-1{fill:none;}.cls-2,.cls-3{fill:#18b3ab;}.cls-2{opacity:0.4;}</style></defs><g id="Layer_2" data-name="Layer 2"><g id="Layer_1-2" data-name="Layer 1"><path class="cls-1" d="M51.16,110.24q-3.28,2-6.63,3.82c-.7.39-.7.7-.24,1.3Q53,126.7,61.7,138.08a1.37,1.37,0,0,0,2.34.23c1.5-1.38,3-2.74,4.51-4.11a1.48,1.48,0,0,0,.67-1.18,1.56,1.56,0,0,0-.42-1q-8.19-10.77-16.37-21.54C52,110,51.73,109.9,51.16,110.24Z"/><path class="cls-1" d="M119.14,50.66c.59,1.05,1,1,1.81.25a8.6,8.6,0,0,0-6.19-14.85,17.37,17.37,0,0,0-1.89.28c-1.65.39-1.67.49-.81,2C114.43,42.44,116.83,46.53,119.14,50.66Z"/><path class="cls-1" d="M47.91,103.63Q39.11,88.5,30.39,73.3c-.39-.67-.7-.87-1.44-.43-4.67,2.75-9.44,5.35-14,8.19A18.48,18.48,0,0,0,7,102c2.35,7.93,9.61,13.31,19.23,13.28A16.81,16.81,0,0,0,33.74,113c4.57-2.6,9.12-5.25,13.7-7.85C48.17,104.77,48.38,104.45,47.91,103.63Z"/><path class="cls-2" d="M130.56,91c1.84-2.73,1.53-5.44-.09-8.23Q112.13,51.06,93.85,19.33c-1.54-2.66-3-5.36-4.64-8a7,7,0,0,0-12.8,5,9.57,9.57,0,0,0,1.35,3.15l25.42,44q7.66,13.27,15.33,26.56a7,7,0,0,0,6,3.91A6.8,6.8,0,0,0,130.56,91Z"/><path class="cls-2" d="M134.45,96.16v0l0,0Z"/><path class="cls-2" d="M52.77,56.24A157.06,157.06,0,0,1,37.27,69.9c-.53.41-1.27.66-.67,1.69q8,13.72,15.88,27.5c.42.73.8.75,1.49.46,1.43-.63,2.89-1.2,4.35-1.74,16.47-6.18,33.35-10,51.08-9,.32,0,.73.22,1-.31C98.5,67.92,86.57,47.25,74.49,26.33A112.75,112.75,0,0,1,52.77,56.24Z"/><path class="cls-3" d="M157.18,51.39c-5,0-10,0-15,0a3.14,3.14,0,0,0-2.61,1.2,3,3,0,0,0-.4,3.23,3.06,3.06,0,0,0,3,1.82c4.75,0,9.5,0,14.25,0a3.81,3.81,0,0,0,4-2.33V53.46C159.62,52.34,158.71,51.39,157.18,51.39Z"/><path class="cls-3" d="M136.22,80.22C132.15,73,128,65.83,123.77,58.67c-.61-1-.64-1.55.4-2.35a14.79,14.79,0,0,0-14.6-25.41c-1.33.55-1.74.17-2.34-.89-4.17-7.3-8.32-14.6-12.62-21.82a13.22,13.22,0,0,0-24.17,10,3.39,3.39,0,0,1-.22,2.24,79.7,79.7,0,0,1-5.91,11.38C56.28,44.67,45.82,55.23,34,64.51a2.1,2.1,0,0,1-2.36.57,2.77,2.77,0,0,0-2.39.4C23.3,68.91,17.28,72.16,11.5,75.8A23.55,23.55,0,0,0,0,95.73c-.36,9.6,3.68,17.2,11.89,22.18s16.61,5,25,.49c1.09-.58,1.56-.35,2.24.53q8.76,11.53,17.6,23c3,3.89,7.7,4.33,11.37,1.08q2.4-2.13,4.75-4.32a7.35,7.35,0,0,0,.93-10.41c-1.84-2.47-3.73-4.9-5.6-7.36-3.91-5.15-7.83-10.3-11.86-15.59a130.28,130.28,0,0,1,14-5c13.81-4.14,27.85-6.44,42.33-4.86A5.59,5.59,0,0,1,116,96.85a12.66,12.66,0,0,0,12.7,2.78,13.1,13.1,0,0,0,5.68-3.47l0,0A13.35,13.35,0,0,0,136.22,80.22Zm-17.71,9.83q-7.65-13.29-15.33-26.56l-25.42-44a9.57,9.57,0,0,1-1.35-3.15,7,7,0,0,1,12.8-5c1.62,2.62,3.1,5.32,4.64,8Q112.15,51,130.47,82.74c1.62,2.79,1.93,5.5.09,8.23a6.8,6.8,0,0,1-6,3A7,7,0,0,1,118.51,90.05Zm-9.11-1.19c-17.73-1-34.61,2.77-51.08,9-1.46.54-2.92,1.11-4.35,1.74-.69.29-1.07.27-1.49-.46Q44.59,85.32,36.6,71.59c-.6-1,.14-1.28.67-1.69a157.06,157.06,0,0,0,15.5-13.66A112.75,112.75,0,0,0,74.49,26.33c12.08,20.92,24,41.59,35.93,62.22C110.13,89.08,109.72,88.88,109.4,88.86Zm3.47-52.52a17.37,17.37,0,0,1,1.89-.28A8.6,8.6,0,0,1,121,50.91c-.8.77-1.22.8-1.81-.25-2.31-4.13-4.71-8.22-7.08-12.33C111.2,36.83,111.22,36.73,112.87,36.34ZM33.74,113a16.81,16.81,0,0,1-7.52,2.28C16.6,115.35,9.34,110,7,102a18.48,18.48,0,0,1,7.91-21c4.61-2.84,9.38-5.44,14.05-8.19.74-.44,1.05-.24,1.44.43q8.73,15.18,17.52,30.33c.47.82.26,1.14-.47,1.56C42.86,107.79,38.31,110.44,33.74,113ZM68.8,132a1.56,1.56,0,0,1,.42,1,1.48,1.48,0,0,1-.67,1.18c-1.5,1.37-3,2.73-4.51,4.11a1.37,1.37,0,0,1-2.34-.23Q53,126.7,44.29,115.36c-.46-.6-.46-.91.24-1.3q3.34-1.86,6.63-3.82c.57-.34.88-.25,1.27.26Q60.59,121.29,68.8,132Z"/><path class="cls-3" d="M118.42,19.11c1.61.92,3.36.34,4.46-1.54,2.42-4.15,4.8-8.31,7.2-12.47a3.46,3.46,0,0,0,.62-1.83A3.06,3.06,0,0,0,128.49.15a3.05,3.05,0,0,0-3.7,1.6q-3.71,6.35-7.34,12.74C116.36,16.39,116.77,18.16,118.42,19.11Z"/><path class="cls-3" d="M136,36.16c4.22-2.38,8.41-4.83,12.6-7.27a3,3,0,0,0,1.54-2.72,3.05,3.05,0,0,0-4.56-2.72c-4.28,2.37-8.52,4.84-12.73,7.35A3,3,0,0,0,131.77,35,3.05,3.05,0,0,0,136,36.16Z"/></g></g></svg>