<svg xmlns="http://www.w3.org/2000/svg" viewBox="0 0 154.98 136.36"><defs><style>.cls-1{fill:none;}.cls-2,.cls-3{fill:#18b3ab;}.cls-2{opacity:0.4;}</style></defs><g id="Layer_2" data-name="Layer 2"><g id="Layer_1-2" data-name="Layer 1"><path class="cls-1" d="M51.64,83.45a3.63,3.63,0,0,0-2.11-3.4,4,4,0,0,0-4.39.49c-3.71,2.95-7.42,5.88-11.08,8.87a3.92,3.92,0,1,0,4.88,6.14c3.74-2.9,7.42-5.87,11.11-8.83A3.83,3.83,0,0,0,51.64,83.45Z"/><path class="cls-1" d="M64.82,88.38a3.79,3.79,0,0,0-5.61-.75c-5.48,4.29-10.88,8.66-16.29,13a3.35,3.35,0,0,0-1.44,2.86,3.89,3.89,0,0,0,6.39,3.19c5.41-4.29,10.82-8.58,16.18-12.93A3.87,3.87,0,0,0,64.82,88.38Z"/><path class="cls-1" d="M40.17,38.18c.09-.66-.4-1.06-1-1.39l-6.74-3.74c-1.64-.9-2.24-.75-3.17.88-2,3.5-4,7-5.95,10.53Q15.08,59,6.87,73.53c-1,1.77-.88,2.1.88,3.08q3.11,1.74,6.22,3.44c2,1.07,2.29,1,3.42-1Q28.52,59.38,39.64,39.71A3.06,3.06,0,0,0,40.17,38.18Z"/><path class="cls-1" d="M69.48,105.82a3.58,3.58,0,0,0-2-3.44,3.73,3.73,0,0,0-4.38.42c-3.72,2.93-7.43,5.87-11.09,8.88a3.92,3.92,0,1,0,4.89,6.13c3.73-2.91,7.41-5.89,11.1-8.86A3.68,3.68,0,0,0,69.48,105.82Z"/><path class="cls-1" d="M71.42,117.54a3.63,3.63,0,0,0-4.13.23c-2.14,1.61-4.23,3.27-6.3,5a4,4,0,1,0,4.86,6.22C67.93,127.35,70,125.69,72,124a3.61,3.61,0,0,0,1.43-3.11A3.51,3.51,0,0,0,71.42,117.54Z"/><path class="cls-1" d="M120.43,89.12c-5-4-9.89-8-14.91-11.84A221.49,221.49,0,0,0,86.91,63.83a15.71,15.71,0,0,0-11-2.33c-1.93.3-3.87.62-5.82.83-8.55.94-16.58-2.56-18.52-11.77a1.49,1.49,0,0,0-1.16-1.23c-2.23-.62-4.46-1.27-6.67-1.93a1.08,1.08,0,0,0-1.48.6c-.53,1-1.13,2-1.7,3-4.49,7.93-9,15.88-13.49,23.79-.63,1.11-.63,1.7.63,2.3a14.68,14.68,0,0,1,4.74,3.69c.7.8,1.2.79,2,.13,2.33-1.92,4.66-3.86,7.09-5.65a10.2,10.2,0,0,1,15.41,3.64c.71,1.5,1.28,2.36,3,1.58a6.77,6.77,0,0,1,1.94-.12,16.93,16.93,0,0,1,2.1.25,10.23,10.23,0,0,1,6.87,14.59c-.32.69-.7,1.2.24,1.88,4.82,3.45,6,8.19,3.56,13.51-.39.83-.27,1.21.47,1.69a10.22,10.22,0,0,1,4.74,8.34,1.79,1.79,0,0,0,.57,1.48c1.55,1.21,3,2.55,4.64,3.63a3.93,3.93,0,0,0,4.36-6.53c-1.3-1.11-2.69-2.11-4-3.23a3.17,3.17,0,1,1,3.85-5c.46.31.88.67,1.32,1,2.48,2,4.92,4,7.46,5.91a3.91,3.91,0,0,0,6.32-2.39c.35-1.8-.57-3.09-1.91-4.15-2.72-2.17-5.45-4.32-8.14-6.52a3.16,3.16,0,0,1,2.69-5.6A5.07,5.07,0,0,1,99,100.39c2.69,2.13,5.35,4.29,8.06,6.38a3.68,3.68,0,0,0,4.51.23,3.79,3.79,0,0,0,1.74-4,4.34,4.34,0,0,0-1.94-2.78c-2.39-1.93-4.81-3.82-7.19-5.77-1.62-1.32-1.93-3.2-.83-4.65s3.06-1.64,4.82-.33l.71.56c2.37,1.88,4.69,3.82,7.11,5.63a3.86,3.86,0,0,0,6.18-2C122.67,91.93,122.13,90.48,120.43,89.12Z"/><path class="cls-2" d="M112.75,48.35a1.53,1.53,0,0,0-2.11-.79c-2.11.67-4.25,1.24-6.39,1.83a11.6,11.6,0,0,1-7.4-.39c-3.62-1.38-7.3-2.62-11-3.89a12.4,12.4,0,0,0-4.59-.87c-5.31.49-10.62,1-15.93,1.46a19.84,19.84,0,0,0-5.74,1.24c-1.81.73-2.15,1.44-1.57,3.28a7.69,7.69,0,0,0,5.66,5.36,14.83,14.83,0,0,0,7.19.15A26.8,26.8,0,0,1,94.37,61c.83.66,1.71,1.25,2.57,1.86,8,5.68,15.71,11.8,23.36,18,.81.65,1.32.81,2.1-.08a15.81,15.81,0,0,1,5-3.85c.9-.45,1-.89.53-1.75Q120.31,61.78,112.75,48.35Z"/><path class="cls-2" d="M129.55,40.94c-1.36-2.36-2.67-4.75-4-7.1-.86-1.49-1.49-1.67-2.94-.88q-3.31,1.82-6.61,3.67c-1.55.88-1.69,1.45-.8,3l9.75,17.24q6.3,11.11,12.58,22.23c1.08,1.89,1.4,2,3.33.92,2.17-1.17,4.32-2.4,6.49-3.57a1.69,1.69,0,0,0,.8-2.71q-2.48-4.32-4.87-8.7a3,3,0,0,1,.46-3.77,3.36,3.36,0,0,1,.71-.56l-3.58-6.35a2.9,2.9,0,0,1-1.48.46,3.14,3.14,0,0,1-1.6-5.92l-3.58-6.35C132.48,43.57,130.7,43,129.55,40.94Z"/><path class="cls-3" d="M154,71.28c-1.65-3.11-3.45-6.14-5.19-9.21a3.24,3.24,0,0,0-1.51-1.44,3,3,0,0,0-2.89.12,3.36,3.36,0,0,0-.71.56,3,3,0,0,0-.46,3.77q2.4,4.38,4.87,8.7a1.69,1.69,0,0,1-.8,2.71c-2.17,1.17-4.32,2.4-6.49,3.57-1.93,1.06-2.25,1-3.33-.92Q131.19,68,124.91,56.91l-9.75-17.24c-.89-1.59-.75-2.16.8-3q3.3-1.86,6.61-3.67c1.45-.79,2.08-.61,2.94.88,1.37,2.35,2.68,4.74,4,7.1,1.15,2,2.93,2.63,4.62,1.65l0,0c1.61-1,2-2.79.9-4.74-1.42-2.55-2.85-5.1-4.32-7.62-2.38-4.09-6.57-5.3-10.76-3.11-2.45,1.29-4.86,2.66-7.29,4-3.81,2.11-5.16,5-4.22,9.33.19.87-.09,1.17-.86,1.37-1.56.41-3.12.82-4.65,1.32A5.94,5.94,0,0,1,98.89,43c-3.83-1.42-7.68-2.75-11.54-4.06a16.76,16.76,0,0,0-7-1c-5.32.48-10.64.9-15.94,1.47-3.77.41-7.5,1.1-10.53,3.68a1.32,1.32,0,0,1-1.39.26q-2.67-.82-5.36-1.56c-.8-.21-1-.56-.81-1.4.92-4.07-.45-7.1-4.07-9.14-2.37-1.34-4.75-2.66-7.15-3.94-4.58-2.44-8.69-1.25-11.28,3.29Q17.48,41.71,11.19,52.91C7.46,59.59,3.49,66.15,0,73V76.9a9.09,9.09,0,0,0,4.91,5.45c2,1,3.9,2.12,5.83,3.21,5,2.84,8.62,2,11.88-2.81.43-.64.78-.8,1.45-.4A17.83,17.83,0,0,1,27.58,85a1.36,1.36,0,0,1,.22,2c-3.74,6.45-1,13.37,6.11,15.64A1.31,1.31,0,0,1,35,103.87c.4,5.18,3,8.39,7.91,9.85.71.22,1.05.45,1.1,1.29.29,5,2.77,8.27,7.53,9.77a1.62,1.62,0,0,1,1.32,1.68,10.36,10.36,0,0,0,17,7.45c2.26-1.78,4.49-3.58,6.69-5.44a1,1,0,0,1,1.55-.05c1.05.86,2.09,1.75,3.21,2.52a10.25,10.25,0,0,0,15.52-4.74c.38-1,.7-1.38,1.92-1.22,6.7.89,11.56-3.16,12-10,.08-1.18.83-1.21,1.58-1.43a10.08,10.08,0,0,0,7.39-9c.09-1.47.66-1.88,1.92-2.29a10.25,10.25,0,0,0,6.09-14.11c-1.31-2.79-1.25-3,1.37-4.82.33-.23.7-.42,1-.67,1.06-.85,1.68-.67,2.43.57A7.59,7.59,0,0,0,143,86.13q4-2.13,7.93-4.4A7.62,7.62,0,0,0,154,71.28Zm-26.6,5.66a15.81,15.81,0,0,0-5,3.85c-.78.89-1.29.73-2.1.08-7.65-6.17-15.34-12.29-23.36-18-.86-.61-1.74-1.2-2.57-1.86a26.8,26.8,0,0,0-23.46-5.31,14.83,14.83,0,0,1-7.19-.15,7.69,7.69,0,0,1-5.66-5.36c-.58-1.84-.24-2.55,1.57-3.28a19.84,19.84,0,0,1,5.74-1.24c5.31-.5,10.62-1,15.93-1.46a12.4,12.4,0,0,1,4.59.87c3.66,1.27,7.34,2.51,11,3.89a11.6,11.6,0,0,0,7.4.39c2.14-.59,4.28-1.16,6.39-1.83a1.53,1.53,0,0,1,2.11.79q7.56,13.44,15.18,26.84C128.42,76.05,128.3,76.49,127.4,76.94ZM17.39,79c-1.13,2-1.44,2.09-3.42,1s-4.15-2.28-6.22-3.44c-1.76-1-1.88-1.31-.88-3.08Q15.06,59,23.3,44.46c2-3.51,3.95-7,5.95-10.53.93-1.63,1.53-1.78,3.17-.88l6.74,3.74c.61.33,1.1.73,1,1.39a3.06,3.06,0,0,1-.53,1.53Q28.51,59.38,17.39,79ZM33.33,94.91a3.81,3.81,0,0,1,.73-5.5c3.66-3,7.37-5.92,11.08-8.87a4,4,0,0,1,4.39-.49,3.63,3.63,0,0,1,2.11,3.4,3.83,3.83,0,0,1-1.59,3.27c-3.69,3-7.37,5.93-11.11,8.83A3.82,3.82,0,0,1,33.33,94.91Zm10.16,12.23a3.73,3.73,0,0,1-2-3.62,3.35,3.35,0,0,1,1.44-2.86c5.41-4.37,10.81-8.74,16.29-13a3.79,3.79,0,0,1,5.61.75,3.87,3.87,0,0,1-.77,5.4c-5.36,4.35-10.77,8.64-16.18,12.93A3.73,3.73,0,0,1,43.49,107.14Zm13.37,10.67A3.92,3.92,0,1,1,52,111.68c3.66-3,7.37-6,11.09-8.88a3.73,3.73,0,0,1,4.38-.42,3.58,3.58,0,0,1,2,3.44A3.68,3.68,0,0,1,68,109C64.27,111.92,60.59,114.9,56.86,117.81ZM72,124c-2,1.66-4,3.32-6.13,4.91A4,4,0,1,1,61,122.72c2.07-1.68,4.16-3.34,6.3-5a3.63,3.63,0,0,1,4.13-.23,3.51,3.51,0,0,1,2,3.38A3.61,3.61,0,0,1,72,124Zm50.18-30.44a3.86,3.86,0,0,1-6.18,2c-2.42-1.81-4.74-3.75-7.11-5.63l-.71-.56c-1.76-1.31-3.68-1.18-4.82.33s-.79,3.33.83,4.65c2.38,2,4.8,3.84,7.19,5.77A4.34,4.34,0,0,1,113.3,103a3.79,3.79,0,0,1-1.74,4,3.68,3.68,0,0,1-4.51-.23c-2.71-2.09-5.37-4.25-8.06-6.38a5.07,5.07,0,0,0-1.93-1.15,3.16,3.16,0,0,0-2.69,5.6c2.69,2.2,5.42,4.35,8.14,6.52,1.34,1.06,2.26,2.35,1.91,4.15a3.91,3.91,0,0,1-6.32,2.39c-2.54-1.9-5-3.94-7.46-5.91-.44-.35-.86-.71-1.32-1a3.17,3.17,0,1,0-3.85,5c1.3,1.12,2.69,2.12,4,3.23a3.93,3.93,0,0,1-4.36,6.53c-1.63-1.08-3.09-2.42-4.64-3.63a1.79,1.79,0,0,1-.57-1.48,10.22,10.22,0,0,0-4.74-8.34c-.74-.48-.86-.86-.47-1.69,2.49-5.32,1.26-10.06-3.56-13.51-.94-.68-.56-1.19-.24-1.88A10.23,10.23,0,0,0,64,80.64a16.93,16.93,0,0,0-2.1-.25,6.77,6.77,0,0,0-1.94.12c-1.75.78-2.32-.08-3-1.58a10.2,10.2,0,0,0-15.41-3.64c-2.43,1.79-4.76,3.73-7.09,5.65-.79.66-1.29.67-2-.13a14.68,14.68,0,0,0-4.74-3.69c-1.26-.6-1.26-1.19-.63-2.3C31.61,66.91,36.08,59,40.57,51c.57-1,1.17-2,1.7-3a1.08,1.08,0,0,1,1.48-.6c2.21.66,4.44,1.31,6.67,1.93a1.49,1.49,0,0,1,1.16,1.23c1.94,9.21,10,12.71,18.52,11.77,2-.21,3.89-.53,5.82-.83a15.71,15.71,0,0,1,11,2.33,221.49,221.49,0,0,1,18.61,13.45c5,3.89,10,7.88,14.91,11.84C122.13,90.48,122.67,91.93,122.16,93.59Z"/><path class="cls-3" d="M54.48,26.51A3,3,0,0,0,57.26,28c2.59,0,4-2.63,2.52-5-2.54-4.16-5.16-8.28-7.78-12.38A3.18,3.18,0,1,0,46.62,14C49.2,18.19,51.85,22.34,54.48,26.51Z"/><path class="cls-3" d="M97.58,28a2.8,2.8,0,0,0,2.59-1.27c2.75-4.33,5.5-8.65,8.18-13a3.11,3.11,0,0,0-1-4.25,3.16,3.16,0,0,0-4.38.93c-.62.85-1.15,1.77-1.71,2.66C99.16,16.42,97,19.75,95,23.16A3.09,3.09,0,0,0,97.58,28Z"/><path class="cls-3" d="M77.46,21.65c1.84,0,3.05-1.31,3.07-3.37,0-2.46,0-4.93,0-7.39s0-4.93,0-7.4C80.52,1.32,79.34,0,77.44,0S74.3,1.29,74.29,3.44q0,7.4,0,14.79C74.3,20.36,75.55,21.68,77.46,21.65Z"/><path class="cls-3" d="M136.08,51.76a3.3,3.3,0,0,0,3.27,3.1,2.9,2.9,0,0,0,1.48-.46,3.16,3.16,0,0,0-1.64-5.92,3,3,0,0,0-1.44.46A3.31,3.31,0,0,0,136.08,51.76Z"/></g></g></svg>